<svg width="102" height="101" viewBox="0 0 102 101" fill="none" xmlns="http://www.w3.org/2000/svg">
<path d="M89.3973 48.9046C89.4616 48.3157 89.4925 47.7243 89.4925 47.1338C89.4925 37.8529 81.9407 30.3009 72.6596 30.3009C70.6591 30.3009 68.6735 30.6576 66.8194 31.345C64.6293 24.7788 58.1967 20.2006 50.7768 20.2006C43.3561 20.2006 36.9244 24.7788 34.7343 31.3442C32.8799 30.6576 30.8944 30.3009 28.894 30.3009C19.6131 30.3009 12.0611 37.8527 12.0611 47.1338C12.0611 47.7243 12.092 48.3157 12.1563 48.9046C5.47485 49.6438 0.276733 54.9848 0.276733 61.4424C0.276733 68.4046 6.31758 74.067 13.7434 74.067C14.6029 74.067 15.4633 73.9901 16.3077 73.8364C16.8357 73.9893 17.3878 74.067 17.9516 74.067H38.1691C38.3478 74.7619 38.4798 75.4619 38.5115 76.1844C38.5232 76.3206 38.5216 76.4559 38.5216 76.592V89.2167C38.5216 93.0289 40.4402 96.6072 43.6326 98.7757C45.7067 100.231 48.1758 101 50.7769 101C57.5345 101 63.0316 95.7134 63.0316 89.2167V76.6079C63.0316 75.7467 63.1827 74.9022 63.4033 74.066L81.9184 74.0669C82.7127 74.0669 83.4896 73.9107 84.2039 73.61C85.3716 73.9123 86.5819 74.0669 87.8098 74.0669C95.2348 74.0669 101.276 68.4036 101.276 61.4422C101.276 54.9846 96.0783 49.6437 89.3977 48.9044L89.3973 48.9046ZM63.7029 66.627C62.2954 68.2283 61.2389 69.9674 60.5698 71.7758C59.97 73.3261 59.666 74.9516 59.666 76.6089V82.4836H41.8892V76.5922C41.8892 76.3575 41.8875 76.1236 41.8708 75.9674C41.8149 74.59 41.5259 73.1875 41.0147 71.8134C40.3489 69.9657 39.3198 68.261 37.9525 66.7423C35.3681 63.8898 33.944 60.2146 33.944 56.3923C33.944 51.9342 35.815 47.7995 39.2122 44.7509C42.819 41.5158 47.7355 39.9721 52.7365 40.5101C60.4178 41.3287 66.7803 47.4723 67.5345 54.7902C67.5879 55.3348 67.613 55.8761 67.6113 56.4149C67.5963 60.1803 66.2373 63.7571 63.7031 66.6272L63.7029 66.627ZM59.6659 89.2166C59.6659 93.8574 55.6783 97.6329 50.7776 97.6329C48.8723 97.6329 47.0706 97.0758 45.5453 96.0058C43.2224 94.4279 41.8891 91.9521 41.8891 89.2165V85.8503H59.6659V89.2166ZM87.8109 70.6997C86.6899 70.6997 85.5898 70.5335 84.545 70.2052C84.3787 70.1543 84.21 70.1284 84.0404 70.1284C83.7414 70.1284 83.444 70.2086 83.1809 70.3631C82.805 70.587 82.3815 70.6997 81.9196 70.6997H64.8522C64.975 70.5043 65.1086 70.3113 65.2439 70.1192C65.3174 70.014 65.3843 69.9071 65.4619 69.8026C65.7025 69.4802 65.9581 69.162 66.2329 68.8504C67.5443 67.3653 68.5951 65.7222 69.372 63.9724C69.3762 63.9624 69.382 63.9532 69.387 63.9432C69.5391 63.599 69.6577 63.2432 69.7888 62.8915C69.8815 62.6418 69.991 62.3987 70.0728 62.1456C70.1079 62.037 70.1279 61.9242 70.1614 61.8148C70.3142 61.3103 70.4595 60.8041 70.569 60.2871C70.5924 60.176 70.6007 60.0615 70.6224 59.9496C70.7227 59.4301 70.8154 58.908 70.8722 58.3784C70.9139 57.9883 70.9198 57.5924 70.9373 57.1982C70.9482 56.9426 70.9774 56.6886 70.9791 56.4305C70.9816 55.7757 70.9507 55.1158 70.8864 54.4526C69.9559 45.433 62.4733 38.1603 53.0964 37.1629C47.1766 36.5248 41.282 38.3707 36.9668 42.2458C32.9056 45.8876 30.5785 51.0447 30.5785 56.3923C30.5785 61.0524 32.3109 65.5303 35.4541 68.9993C35.9027 69.4963 36.2919 70.0243 36.6452 70.568C36.6745 70.6123 36.7062 70.6557 36.7346 70.7H17.9531C17.6356 70.7 17.3182 70.6407 17.0376 70.5304C16.7285 70.4101 16.3936 70.3826 16.0645 70.4519C15.3052 70.6165 14.5242 70.7 13.7448 70.7C8.17502 70.7 3.64535 66.546 3.64535 61.4416C3.64535 56.338 8.17609 52.184 13.7448 52.184C13.8091 52.1823 13.8667 52.1807 13.9285 52.1874C14.4723 52.2659 15.0169 52.0512 15.3836 51.6436C15.752 51.2343 15.8965 50.6721 15.7729 50.1375C15.5448 49.1494 15.4287 48.1404 15.4287 47.1338C15.4287 39.7088 21.4696 33.6671 28.8954 33.6671C31.0605 33.6671 33.2006 34.1883 35.0834 35.1748C35.5553 35.4246 36.1192 35.4312 36.5978 35.1999C37.0781 34.9668 37.4197 34.5208 37.5183 33.9962C38.6568 27.9528 44.234 23.5675 50.7786 23.5675C57.3232 23.5675 62.9005 27.9537 64.0398 33.9962C64.1384 34.5208 64.48 34.966 64.9603 35.1999C65.4389 35.4312 66.0027 35.4254 66.4747 35.1748C68.3566 34.1883 70.4967 33.6671 72.6618 33.6671C80.0868 33.6671 86.1285 39.7079 86.1285 47.1338C86.1285 48.1395 86.0115 49.1494 85.7835 50.1375C85.6599 50.6721 85.8052 51.2343 86.1727 51.6436C86.5394 52.0512 87.0865 52.2684 87.6278 52.1874C87.6913 52.1807 87.7473 52.1823 87.8116 52.184C93.3813 52.184 97.911 56.338 97.911 61.4424C97.911 66.546 93.3803 70.7 87.8116 70.7L87.8109 70.6997Z" fill="#404040"/>
<path d="M57.4375 50.9916C56.7801 50.3342 55.7151 50.3342 55.0569 50.9916L50.7767 55.2725L46.4958 50.9916C45.8384 50.3342 44.7734 50.3342 44.1151 50.9916C43.4578 51.6489 43.4578 52.7139 44.1151 53.3722L48.3961 57.6523L44.1151 61.9333C43.4578 62.5907 43.4578 63.6557 44.1151 64.3139C44.4442 64.6422 44.8744 64.8067 45.3054 64.8067C45.7364 64.8067 46.1666 64.6422 46.4957 64.3139L50.7767 60.0329L55.0577 64.3139C55.386 64.6422 55.817 64.8067 56.2471 64.8067C56.6781 64.8067 57.1083 64.6422 57.4374 64.3139C58.0948 63.6565 58.0948 62.5915 57.4374 61.9333L53.1564 57.6523L57.4374 53.3713C58.0948 52.714 58.0949 51.649 57.4375 50.9916Z" fill="#404040"/>
<path d="M79.392 9.59093C80.3225 9.59093 81.0751 8.83834 81.0751 7.90781C81.0751 5.40359 83.3404 3.36724 86.1252 3.36724C88.8148 3.36724 91.1754 5.48972 91.1754 7.90781C91.1754 9.8031 89.8456 11.5163 87.8658 12.1719C85.8177 12.8468 84.4411 14.7589 84.4411 16.9272V19.1106C84.4411 20.0412 85.1936 20.7938 86.1242 20.7938C87.0547 20.7938 87.8073 20.0412 87.8073 19.1106V16.9272C87.8073 16.3341 88.1506 15.6216 88.9216 15.3668C92.2828 14.2542 94.5414 11.2571 94.5414 7.90762C94.5414 3.62172 90.6865 0 86.125 0C81.4842 0 77.7087 3.54753 77.7087 7.90698C77.7078 8.83751 78.4614 9.59093 79.392 9.59093Z" fill="#404040"/>
<path d="M86.1256 24.0055C85.1951 24.0055 84.4425 24.7581 84.4425 25.6886L84.4417 26.9332C84.4417 27.8637 85.1943 28.6163 86.1248 28.6163C87.0553 28.6163 87.8079 27.8637 87.8079 26.9332V25.6886C87.8087 24.7589 87.0562 24.0055 86.1256 24.0055Z" fill="#404040"/>
<path d="M12.6305 15.3666C13.3998 15.6214 13.7431 16.3339 13.7431 16.927V19.1104C13.7431 20.041 14.4957 20.7936 15.4262 20.7936C16.3567 20.7936 17.1093 20.041 17.1093 19.1104V16.927C17.1093 14.7585 15.7336 12.8466 13.6871 12.1717C11.7066 11.5152 10.377 9.80284 10.377 7.90762C10.377 5.48936 12.7375 3.36704 15.4271 3.36704C18.2119 3.36704 20.4772 5.40348 20.4772 7.90762C20.4772 8.83815 21.2298 9.59074 22.1604 9.59074C23.0909 9.59074 23.8435 8.83815 23.8435 7.90762C23.8435 3.54731 20.0672 0 15.4271 0C10.8648 0 7.00995 3.62194 7.00995 7.90762C7.00995 11.2571 9.26848 14.2542 12.6306 15.3668L12.6305 15.3666Z" fill="#404040"/>
<path d="M15.4275 24.0055C14.4969 24.0055 13.7443 24.7581 13.7443 25.6886L13.7435 26.9332C13.7435 27.8637 14.4961 28.6163 15.4266 28.6163C16.3571 28.6163 17.1097 27.8637 17.1097 26.9332V25.6886C17.1106 24.7589 16.358 24.0055 15.4275 24.0055Z" fill="#404040"/>
</svg>
