<svg width="89" height="89" viewBox="0 0 89 89" fill="none" xmlns="http://www.w3.org/2000/svg">
<path d="M77.8763 0.00415039H40.7958C37.8454 0.00415039 35.0163 1.17624 32.9299 3.26188C30.8442 5.34846 29.6721 8.17744 29.6721 11.1278V14.8363C29.6721 16.1611 30.3787 17.3847 31.5259 18.0472C32.6732 18.7096 34.0863 18.7096 35.2335 18.0472C36.3808 17.3848 37.0882 16.1612 37.0882 14.8363V11.1278C37.0882 10.1443 37.4783 9.20133 38.1739 8.50576C38.8694 7.8102 39.8124 7.42015 40.7959 7.42015H77.8764C78.8599 7.42015 79.8029 7.81022 80.4985 8.50576C81.194 9.20131 81.5841 10.1443 81.5841 11.1278V77.8722C81.5841 78.8557 81.194 79.7987 80.4985 80.4943C79.8029 81.1898 78.8599 81.5799 77.8764 81.5799H40.7959C39.8124 81.5799 38.8694 81.1898 38.1739 80.4943C37.4783 79.7987 37.0882 78.8558 37.0882 77.8722V74.1637C37.0882 72.8389 36.3808 71.6153 35.2335 70.9528C34.0863 70.2904 32.6732 70.2904 31.5259 70.9528C30.3787 71.6152 29.6721 72.8388 29.6721 74.1637V77.8722C29.6721 80.8226 30.8442 83.6517 32.9299 85.7382C35.0164 87.8238 37.8454 88.9959 40.7958 88.9959H77.8763C80.8267 88.9959 83.6557 87.8238 85.7422 85.7382C87.8279 83.6516 88.9999 80.8226 88.9999 77.8722V11.1278C88.9999 8.17744 87.8279 5.34836 85.7422 3.26188C83.6556 1.17622 80.8267 0.00415039 77.8763 0.00415039Z" fill="#474747"/>
<path d="M47.7649 57.6269C47.0749 58.3215 46.6867 59.2608 46.6867 60.2407C46.6867 61.2205 47.0749 62.1598 47.7649 62.8545C48.4604 63.5455 49.3998 63.9337 50.3797 63.9337C51.3596 63.9337 52.2988 63.5455 52.9935 62.8545L63.4871 52.3609H63.4881C65.571 50.2752 66.7411 47.4481 66.7411 44.5004C66.7411 41.5516 65.5708 38.7247 63.4881 36.6389L52.9944 26.1452H52.9935C52.0394 25.3273 50.7358 25.0495 49.5306 25.4056C48.3254 25.7616 47.3824 26.7046 47.0263 27.9099C46.6694 29.1151 46.9481 30.4186 47.7651 31.3737L57.1473 40.7917H3.71223C2.38742 40.7917 1.16389 41.4983 0.501364 42.6455C-0.161158 43.7928 -0.16104 45.2068 0.501364 46.354C1.16377 47.5012 2.38737 48.2078 3.71223 48.2078H57.1473L47.7649 57.6269Z" fill="#474747"/>
</svg>
