<svg width="75" height="95" viewBox="0 0 75 95" fill="none" xmlns="http://www.w3.org/2000/svg">
<path d="M1.99929 0C0.914999 0.100443 -0.00425397 1.09399 1.4808e-05 2.1612V83.2074C1.4808e-05 84.339 1.05097 85.3686 2.20621 85.3686H30.4348C31.6004 85.3845 32.6719 84.3491 32.6719 83.2074C32.6719 82.0656 31.6004 81.0303 30.4348 81.0461H4.41283V4.32412H70.5876V81.0461H69.5196C68.354 81.0302 67.2825 82.0656 67.2825 83.2074C67.2825 84.3491 68.354 85.3844 69.5196 85.3686H72.7938C73.9491 85.3686 74.9991 84.339 75 83.2074V2.1612C75 1.02956 73.949 0 72.7938 0H2.0022H1.99929ZM13.0287 9.72541C11.8734 9.77814 10.8721 10.8562 10.926 11.988C10.9798 13.1196 12.0804 14.1014 13.2357 14.0479H61.764C62.9295 14.0638 64.0011 13.0284 64.0011 11.8867C64.0011 10.745 62.9296 9.70962 61.764 9.72547H13.0299L13.0287 9.72541ZM13.0287 20.5314C11.8734 20.5842 10.8721 21.6622 10.926 22.794C10.9798 23.9256 12.0804 24.9075 13.2357 24.8539H51.8364C53.0019 24.8698 54.0734 23.8344 54.0734 22.6927C54.0734 21.551 53.002 20.5156 51.8364 20.5315H13.0277L13.0287 20.5314ZM13.0287 31.3374C11.8734 31.3902 10.8721 32.4682 10.926 33.6C10.9798 34.7316 12.0804 35.7135 13.2357 35.6599H60.6957C61.8612 35.6758 62.9328 34.6404 62.9328 33.4987C62.9328 32.357 61.8613 31.3216 60.6957 31.3375H13.0299L13.0287 31.3374ZM13.0287 42.1434C11.8734 42.1962 10.8721 43.2743 10.926 44.406C10.9798 45.5376 12.0804 46.5195 13.2357 46.4659H34.1906C35.3561 46.4818 36.4276 45.4464 36.4276 44.3047C36.4276 43.163 35.3562 42.1276 34.1906 42.1435L13.0287 42.1434ZM49.6307 44.3046C40.5203 44.3046 33.0876 51.5875 33.0876 60.5137C33.0876 69.4405 40.5203 76.7227 49.6307 76.7227C58.7412 76.7227 66.1739 69.4398 66.1739 60.5137C66.1739 51.5869 58.7412 44.3046 49.6307 44.3046ZM49.6307 48.6271C56.3572 48.6271 61.7624 53.9238 61.7624 60.5137C61.7624 67.1044 56.3572 72.4003 49.6307 72.4003C42.9042 72.4003 37.4991 67.1036 37.4991 60.5137C37.4991 53.9229 42.9042 48.6271 49.6307 48.6271ZM54.9384 55.0772C54.3835 55.1333 53.8542 55.4053 53.4907 55.8205L47.3209 62.7091L44.5639 60.0416C43.749 59.2196 42.2363 59.2137 41.4136 60.029C40.591 60.8434 40.6141 62.3259 41.4615 63.115L45.873 67.4374C46.7247 68.2845 48.3187 68.2351 49.1131 67.3362L56.7989 58.6905C57.4026 58.0485 57.5471 57.0315 57.146 56.2522C56.7441 55.473 55.824 54.9833 54.9381 55.077L54.9384 55.0772ZM38.3603 76.6892C37.276 76.8056 36.3721 77.8159 36.396 78.8839V92.9317C36.4191 94.4835 38.533 95.5609 39.8422 94.6878L49.6308 88.0694L59.4194 94.6878C60.7286 95.5608 62.8434 94.4835 62.8655 92.9317V78.8839C62.8818 77.7422 61.8248 76.6918 60.6593 76.6918C59.4938 76.6918 58.4369 77.7423 58.4531 78.8839V88.8118L50.8707 83.6449C50.1447 83.1611 49.1151 83.1611 48.3891 83.6449L40.8067 88.8118V78.8839C40.834 77.6576 39.6035 76.5545 38.3592 76.6892H38.3603Z" fill="#404040"/>
</svg>
