<svg width="87" height="108" viewBox="0 0 87 108" fill="none" xmlns="http://www.w3.org/2000/svg">
<mask id="mask0_174_35" style="mask-type:luminance" maskUnits="userSpaceOnUse" x="0" y="0" width="87" height="108">
<path d="M0 0H86.0612V107.323H0V0Z" fill="white"/>
</mask>
<g mask="url(#mask0_174_35)">
<path d="M38.3396 52.9116C30.262 52.9116 22.6555 56.0691 16.9148 61.8264C11.1754 67.5665 8 75.1729 8 83.2512V95.5332C8 97.0687 9.25632 98.3243 10.791 98.3243H65.8867C67.4221 98.3243 68.6777 97.068 68.6777 95.5332V83.2512C68.6777 75.1736 65.5202 67.5672 59.763 61.8264C54.0236 56.069 46.4171 52.9109 38.3382 52.9109L38.3396 52.9116ZM63.0958 92.7418H13.5833V83.2508C13.5833 69.6079 24.679 58.4946 38.3396 58.4946C51.9826 58.4946 63.0958 69.6077 63.0958 83.2508V92.7418ZM38.3396 49.5093C49.5053 49.5093 58.5942 40.4199 58.5942 29.2546C58.5949 18.0889 49.5048 9 38.3396 9C27.1738 9 18.0849 18.0894 18.0849 29.2546C18.0849 40.4204 27.1744 49.5093 38.3396 49.5093ZM38.3396 14.5814C46.4343 14.5814 53.0118 21.1588 53.0118 29.2536C53.0118 37.3483 46.4343 43.9258 38.3396 43.9258C30.2448 43.9258 23.6674 37.3483 23.6674 29.2536C23.6674 21.1588 30.262 14.5814 38.3396 14.5814ZM79.5297 49.9791C79.5297 51.5146 78.2734 52.7701 76.7386 52.7701H70.4576V59.0511C70.4576 60.5866 69.2013 61.8422 67.6666 61.8422C66.1312 61.8422 64.8756 60.5859 64.8756 59.0511V52.7701H58.5946C57.0591 52.7701 55.8035 51.5138 55.8035 49.9791C55.8035 48.4437 57.0598 47.1881 58.5946 47.1881H64.8756V40.9071C64.8756 39.3716 66.1319 38.116 67.6666 38.116C69.202 38.116 70.4576 39.3724 70.4576 40.9071V47.1881H76.7386C78.2734 47.1881 79.5297 48.4264 79.5297 49.9791Z" fill="#474747"/>
</g>
</svg>
